<svg id="Logo-tagline" xmlns="http://www.w3.org/2000/svg" width="270.179" height="34.707" viewBox="0 0 270.179 34.707">
  <g id="Group_15" data-name="Group 15" transform="translate(0 0)">
    <path id="Path_44" data-name="Path 44" d="M250.369,151.562h-8.813L224.2,168.915l17.353,17.353h8.813l-17.353-17.353Z" transform="translate(-224.202 -151.562)" fill="#34333e"/>
    <path id="Path_45" data-name="Path 45" d="M817.925,151.562h-8.813l17.353,17.353-17.353,17.353h8.813l17.353-17.353Z" transform="translate(-565.099 -151.562)" fill="#34333e"/>
    <path id="Path_46" data-name="Path 46" d="M485.166,151.562H289.553l-17.192,17.192,17.515,17.515H484.844l17.515-17.515Z" transform="translate(-252.27 -151.562)" fill="#34333e"/>
  </g>
  <g id="Group_16" data-name="Group 16" transform="translate(51.655 10.213)">
    <path id="Path_47" data-name="Path 47" d="M361.026,191.033H356a6.134,6.134,0,0,1-5.526-2.418,16.245,16.245,0,0,1-.826,2.448l-1.622-.571a12.232,12.232,0,0,0,1.322-5.3l1.5.165c.24.03.36.06.36.165a.9.9,0,0,1-.21.285c-.03.18-.12.826-.135.916.12.18.165.255.555.8v-3.274h-2.4V182.7h2.177v-1.2h-1.952v-1.532h1.952v-1.547l1.592.135c.27.03.435.06.435.18,0,.076-.345.33-.345.421v.811h1.607V181.5h-1.607v1.2h2.222a2.728,2.728,0,0,0,1.337-2.523H354.9v-1.442h6.712a14.4,14.4,0,0,1-.526,3.634c-.39,1.277-1.126,1.352-2.3,1.382l-.961-1.712c.375.03.646.045.916.045.421,0,.9-.03,1.006-1.907h-1.607a5.715,5.715,0,0,1-1.667,3.8h4.82v4.91H359.69v-.465h-2.733v.465h-1.592v-4.91h.766l-1.036-.841v1.111h-2.072v1.021h1.787V186.9h-1.787v1.967a5.731,5.731,0,0,0,3,.661,54.8,54.8,0,0,0,5.856-.405Zm-1.336-5.661h-2.733v1.652h2.733Z" transform="translate(-348.022 -177.428)" fill="#fff"/>
    <path id="Path_48" data-name="Path 48" d="M406.964,187.171a3.687,3.687,0,0,1-2.312-1.306,6.95,6.95,0,0,1-1.426,1.321l-1.2-1.081h-2.583v.5h-1.277v-3.244h3.994v2.6a6.18,6.18,0,0,0,1.577-1.306,10.6,10.6,0,0,1-1.216-3.514h-4.67c.03,3.229-.27,4.55-1.246,6.127l-1.457-.751a8.356,8.356,0,0,0,1.2-4.85c0-.631-.03-1.322-.06-2h6.022a12.027,12.027,0,0,1-.03-1.456l1.486.09c.27.015.435.06.435.18,0,.06-.3.24-.345.3a8.827,8.827,0,0,0,0,.886h1.637c-.225-.255-.421-.451-.811-.856l1.232-.676a5.644,5.644,0,0,1,1.081,1.081l-.706.451h1.952v1.472h-4.234a6.957,6.957,0,0,0,.705,2.192,11.868,11.868,0,0,0,1.021-2.057l1.307.645c.285.136.3.2.3.241,0,.09-.105.1-.195.12s-.136.03-.165.09a12.606,12.606,0,0,1-1.352,2.253c.24.225.661.586.931.586.36,0,.405-.616.436-1.036l1.321.811C408.286,185.369,407.955,187.171,406.964,187.171Zm-8.529,1.006c-.21.06-.24.075-.27.12a9.688,9.688,0,0,1-1.5,2.793l-1.352-.9a10.849,10.849,0,0,0,1.547-3.018l1.4.661c.09.045.27.135.27.255C398.525,188.147,398.495,188.162,398.435,188.177Zm-.18-5.391v-1.141h3.964v1.141Zm6.878,7.553c-.135.225-.436.736-1.622.736h-3.469c-.571,0-1.232-.36-1.232-.886v-2.913l1.562.09c.24.015.33.015.33.135,0,.06-.03.12-.135.18-.045.03-.121.075-.121.135v1.276c0,.421.526.451.706.451h1.892c.406,0,.961-.045,1.066-1.366l1.381.856A2.309,2.309,0,0,1,405.132,190.339Zm-4.1-6.052h-1.592v.811h1.592Zm1.066,4.76a11.237,11.237,0,0,0-1.216-1.652l1.141-.781a12.437,12.437,0,0,1,1.337,1.667Zm4.926,1.667a10.8,10.8,0,0,0-1.817-2.643l1.442-.886a18.067,18.067,0,0,1,1.742,2.628Z" transform="translate(-375.487 -177.26)" fill="#fff"/>
    <path id="Path_49" data-name="Path 49" d="M453.083,190.937h-3.394a1.058,1.058,0,0,1-1.2-1.066v-1.832h-2.162l1.1.39c.076.03.226.091.226.256,0,.21-.2.195-.451.195a7.555,7.555,0,0,1-4.264,2.493l-1.021-1.532a5.943,5.943,0,0,0,3.859-1.8H444.3v-5.616h8.064v5.616h-2.117v.841c0,.33.135.526.585.526h1.517c.586,0,.631-.661.781-1.486l1.472.856C454.434,189.961,454.088,190.937,453.083,190.937Zm-.18-7.433v-1.577h-9.22v1.742h-1.667v-3h2.478a7.683,7.683,0,0,0-.946-1.517l1.381-.8a11.01,11.01,0,0,1,1.231,1.727l-1.066.586h4.956a13.579,13.579,0,0,0,1.126-2.478l1.426.48c.075.03.481.15.481.346,0,.165-.18.225-.481.3-.12.2-.676,1.141-.8,1.352h2.763V183.5Zm-2.252.09h-4.685v.481h4.685Zm0,1.352h-4.685v.481h4.685Zm0,1.366h-4.685v.526h4.685Zm-2.823-5.661a12.77,12.77,0,0,0-1.066-2.132l1.517-.676a13.436,13.436,0,0,1,1.141,2.222Z" transform="translate(-402.742 -177.092)" fill="#fff"/>
    <path id="Path_50" data-name="Path 50" d="M495.669,180.093c-.225.165-.24.18-.24.225v6.337h-1.787v-7.087l1.787.15c.12.015.391.03.391.165C495.819,179.959,495.729,180.033,495.669,180.093Zm6.232-.105c-.2.2-.2.241-.2.661-.015.135.015.811.015.961,0,2.928-.03,4.115-.511,5.571a7.793,7.793,0,0,1-4.4,4.565L495.5,190.29c3.078-1.216,4.37-2.643,4.37-7.178,0-.361-.03-2.448-.1-3.649l1.922.105c.075,0,.375.015.375.195C502.066,179.808,502.051,179.868,501.9,179.988Z" transform="translate(-432.892 -178.036)" fill="#fff"/>
    <path id="Path_51" data-name="Path 51" d="M545.5,188.822a21.822,21.822,0,0,0-3.634-3.754,14.555,14.555,0,0,1-5.166,3.874l-1.336-1.381a12.769,12.769,0,0,0,7.343-7.328H537v-1.742h6.472a1.172,1.172,0,0,0,.706-.42l1.247,1.306a1.872,1.872,0,0,0-.826.946,19.369,19.369,0,0,1-1.727,3.334,27.411,27.411,0,0,1,3.994,3.709Zm1.232-9.16a7.973,7.973,0,0,0-1.111-1.4l.735-.586a8.267,8.267,0,0,1,1.111,1.4Zm.961-1.757a7.332,7.332,0,0,0-1.141-1.262l.721-.6a5.458,5.458,0,0,1,1.141,1.262Z" transform="translate(-457.21 -176.043)" fill="#fff"/>
    <path id="Path_52" data-name="Path 52" d="M591.378,191.342a11.165,11.165,0,0,0-.63-1.682c-1.442.24-8.59,1.426-8.695,1.5-.03.015-.21.2-.225.21a.156.156,0,0,1-.12.06c-.12,0-.165-.135-.225-.406l-.36-1.742c.36-.015.8-.045,1.667-.12a78.671,78.671,0,0,0,2.958-8.875l1.772.436c.136.03.42.135.42.285,0,.075-.03.09-.285.24-.151.075-.181.12-.315.526-.8,2.327-2.058,5.586-2.718,7.208,2.132-.24,3.709-.451,5.361-.736a13.548,13.548,0,0,0-1.727-2.327l1.592-.8a19.879,19.879,0,0,1,3.229,5.286Z" transform="translate(-483.877 -178.518)" fill="#fff"/>
    <path id="Path_53" data-name="Path 53" d="M635.006,182.8c-.255,3.859-1.352,5.916-4.19,8.139l-1.772-1.1a7.915,7.915,0,0,0,3.214-3.259,7.731,7.731,0,0,0,.9-3.784H630.1a13.8,13.8,0,0,1-2.313,2.913l-1.7-.946a14.233,14.233,0,0,0,4.19-7l1.7.616c.12.045.375.165.375.3,0,.09-.135.135-.211.165-.2.076-.21.121-.255.255a19.185,19.185,0,0,1-.856,1.982h7.583V182.8Zm1.937-2.418a8.758,8.758,0,0,0-1.2-1.456l.781-.631a8.162,8.162,0,0,1,1.232,1.472Zm1.847-.526a5.678,5.678,0,0,0-1.126-1.426l.781-.646a7.185,7.185,0,0,1,1.157,1.471Z" transform="translate(-510.083 -177.05)" fill="#fff"/>
    <path id="Path_54" data-name="Path 54" d="M674.757,193.536v-1.907h10.677v1.907Z" transform="translate(-538.45 -185.127)" fill="#fff"/>
    <path id="Path_55" data-name="Path 55" d="M729.618,191.342a11.184,11.184,0,0,0-.631-1.682c-1.442.24-8.59,1.426-8.695,1.5-.03.015-.21.2-.225.21a.155.155,0,0,1-.12.06c-.12,0-.165-.135-.225-.406l-.36-1.742c.36-.015.8-.045,1.667-.12a78.666,78.666,0,0,0,2.958-8.875l1.772.436c.135.03.42.135.42.285,0,.075-.03.09-.285.24-.15.075-.181.12-.315.526-.8,2.327-2.057,5.586-2.718,7.208,2.133-.24,3.709-.451,5.361-.736a13.526,13.526,0,0,0-1.727-2.327l1.592-.8a19.873,19.873,0,0,1,3.229,5.286Z" transform="translate(-564.447 -178.518)" fill="#fff"/>
  </g>
</svg>
