<?xml version="1.0" encoding="utf-8"?>
<!-- Generator: Adobe Illustrator 25.0.1, SVG Export Plug-In . SVG Version: 6.00 Build 0)  -->
<svg version="1.1" id="Layer_1" xmlns="http://www.w3.org/2000/svg" xmlns:xlink="http://www.w3.org/1999/xlink" x="0px" y="0px"
	 viewBox="0 0 106.2 25.5" style="enable-background:new 0 0 106.2 25.5;" xml:space="preserve">
<style type="text/css">
	.st0{fill:#34333E;}
</style>
<g id="headline_eng_screenshots" transform="translate(-306.47 -599)">
	<path id="Path_186" class="st0" d="M309.4,608.4l7.3-9.4l-10.3,9.6l15.9,15.9h63.8l-61.6-3L309.4,608.4z"/>
	<g id="Group_60" transform="translate(325.583 604.382)">
		<path id="Path_187" d="M3.2,1.6c-0.9,0-1.4,0.3-1.4,0.9c0,0.3,0.1,0.5,0.4,0.6c0.5,0.3,1.1,0.5,1.6,0.6c0.7,0.2,1.3,0.5,1.8,0.9
			c0.4,0.4,0.6,1,0.5,1.6c0.1,0.8-0.3,1.6-0.8,2.1C4.6,8.9,3.8,9.2,3.1,9.1C2.2,9.1,1.4,9,0.6,8.8L0.1,8.7l0.2-1.4
			c0.9,0.1,1.8,0.2,2.7,0.2c0.9,0,1.4-0.4,1.4-1.1c0-0.3-0.1-0.5-0.3-0.6C3.6,5.6,3.2,5.4,2.7,5.3C2,5.1,1.2,4.8,0.6,4.3
			C0.2,3.8,0,3.2,0,2.6c-0.1-0.7,0.2-1.5,0.8-2C1.4,0.2,2.2,0,3,0c0.8,0,1.6,0.1,2.4,0.3l0.5,0.1L5.8,1.8C4.6,1.6,3.7,1.6,3.2,1.6z"
			/>
		<path id="Path_188" d="M13.3,8.8c-0.8,0.2-1.6,0.3-2.5,0.3c-0.6,0-1.2-0.1-1.8-0.3C8.6,8.7,8.2,8.4,8,8C7.7,7.6,7.5,7.1,7.5,6.6
			c-0.1-0.7-0.2-1.3-0.1-2C7.2,3.3,7.5,2.1,8,1c0.7-0.7,1.7-1.1,2.7-1c0.9,0,1.7,0.1,2.6,0.4l-0.1,1.4c-0.7-0.1-1.4-0.2-2.1-0.2
			c-0.4,0-0.8,0-1.2,0.2C9.6,2,9.4,2.3,9.3,2.7C9.2,3.4,9.1,4.1,9.2,4.8C9.1,5.6,9.2,6.3,9.5,7c0.3,0.4,0.9,0.7,1.4,0.6
			c0.8,0,1.5-0.1,2.3-0.2L13.3,8.8z"/>
		<path id="Path_189" d="M16.6,6v3h-1.8V0.2h3.4c2.1,0,3.1,1,3.1,2.9c0.1,1-0.4,2-1.3,2.5L21.3,9h-2l-1-3L16.6,6z M19.2,4.1
			c0.2-0.3,0.3-0.7,0.3-1c0-0.4-0.1-0.7-0.3-1c-0.2-0.3-0.6-0.4-1-0.4h-1.6v2.8h1.7C18.7,4.5,19,4.4,19.2,4.1z"/>
		<path id="Path_190" d="M23,9V0.2h5.7v1.6h-3.9v2.1H28v1.5h-3.1v2.1h3.9V9L23,9z"/>
		<path id="Path_191" d="M30.3,9V0.2h5.7v1.6h-3.9v2.1h3.1v1.5h-3.1v2.1h3.9V9L30.3,9z"/>
		<path id="Path_192" d="M37.7,9V0.2h3l2.1,7.3h0.1V0.2h1.8V9h-2.9l-2.2-7.3h-0.1V9H37.7z"/>
		<path id="Path_193" d="M49.5,1.6c-0.9,0-1.4,0.3-1.4,0.9c0,0.3,0.1,0.5,0.3,0.6c0.5,0.3,1.1,0.5,1.6,0.6c0.7,0.2,1.3,0.5,1.8,0.9
			c0.4,0.4,0.6,1,0.5,1.6c0.1,0.8-0.3,1.6-0.8,2.1c-0.6,0.5-1.4,0.8-2.2,0.7c-0.8,0-1.7-0.1-2.5-0.3l-0.5-0.1l0.2-1.4
			c0.9,0.1,1.8,0.2,2.7,0.2c0.9,0,1.4-0.4,1.4-1.1c0-0.3-0.1-0.5-0.3-0.6c-0.4-0.2-0.8-0.4-1.3-0.5c-0.8-0.2-1.5-0.5-2.1-1
			c-0.4-0.4-0.7-1-0.6-1.6c-0.1-0.7,0.2-1.5,0.8-2C47.7,0.2,48.5,0,49.3,0c0.8,0,1.6,0.1,2.4,0.3l0.5,0.1l-0.1,1.4
			C50.8,1.6,50,1.6,49.5,1.6z"/>
		<path id="Path_194" d="M59,9V5.3h-3.3V9H54V0.2h1.8v3.6H59V0.2h1.8V9H59z"/>
		<path id="Path_195" d="M69,8c-1.6,1.5-4.1,1.5-5.7,0c-0.6-1-0.9-2.2-0.8-3.4c-0.1-1.2,0.2-2.4,0.8-3.5c1.6-1.5,4.1-1.5,5.7,0
			c0.6,1,0.9,2.3,0.8,3.5C69.9,5.8,69.6,7,69,8z M64.7,6.9c0.6,0.8,1.8,0.9,2.6,0.3c0.1-0.1,0.2-0.2,0.3-0.3C67.9,6.2,68,5.4,68,4.6
			C68,3.8,67.9,3,67.6,2.3c-0.6-0.8-1.7-1-2.5-0.4C65,2,64.8,2.1,64.7,2.3c-0.3,0.7-0.4,1.5-0.4,2.3C64.3,5.4,64.4,6.2,64.7,6.9
			L64.7,6.9z"/>
		<path id="Path_196" d="M70.7,1.7V0.2h6.5v1.6h-2.3V9H73V1.7H70.7z"/>
		<path id="Path_197" d="M81.1,1.6c-0.9,0-1.4,0.3-1.4,0.9c0,0.3,0.1,0.5,0.3,0.6c0.5,0.3,1.1,0.5,1.6,0.6c0.7,0.2,1.3,0.5,1.8,0.9
			c0.4,0.4,0.6,1,0.5,1.6c0.1,0.8-0.3,1.6-0.8,2.1c-0.6,0.5-1.4,0.8-2.2,0.7c-0.8,0-1.7-0.1-2.5-0.3l-0.5-0.1l0.2-1.4
			c0.9,0.1,1.8,0.2,2.7,0.2c0.9,0,1.4-0.4,1.4-1.1c0-0.3-0.1-0.5-0.3-0.6c-0.4-0.2-0.8-0.4-1.3-0.5c-0.8-0.2-1.5-0.5-2.1-1
			c-0.4-0.4-0.7-1-0.6-1.6c-0.1-0.7,0.2-1.5,0.8-2C79.4,0.2,80.2,0,81,0c0.8,0,1.6,0.1,2.4,0.3l0.5,0.1l-0.1,1.4
			C82.5,1.6,81.6,1.6,81.1,1.6z"/>
	</g>
</g>
</svg>
