<?xml version="1.0" encoding="utf-8"?>
<!-- Generator: Adobe Illustrator 25.0.1, SVG Export Plug-In . SVG Version: 6.00 Build 0)  -->
<svg version="1.1" id="Layer_1" xmlns="http://www.w3.org/2000/svg" xmlns:xlink="http://www.w3.org/1999/xlink" x="0px" y="0px"
	 viewBox="0 0 79.7 25.5" style="enable-background:new 0 0 79.7 25.5;" xml:space="preserve">
<style type="text/css">
	.st0{fill:#FFFFFF;}
</style>
<g id="headline_eng_videos" transform="translate(-439.08 -599)">
	<path id="Path_198" class="st0" d="M442,608.4l7.3-9.4l-10.3,9.6l15.9,15.9h63.8l-61.6-3L442,608.4z"/>
	<g id="Group_61" transform="translate(457.919 604.382)">
		<path id="Path_199" class="st0" d="M5.5,0.2h1.9L5.4,9H2.1L0,0.2h1.9l1.5,7.3H4L5.5,0.2z"/>
		<path id="Path_200" class="st0" d="M8.7,9V0.2h1.8V9H8.7z"/>
		<path id="Path_201" class="st0" d="M15.5,9h-3V0.2h3c0.6,0,1.3,0.1,1.9,0.2c0.5,0.1,0.9,0.4,1.1,0.8C18.8,1.6,19,2,19.1,2.5
			c0.1,0.6,0.2,1.3,0.2,1.9c0,0.7,0,1.3-0.1,2c-0.1,0.5-0.3,1-0.5,1.4c-0.3,0.4-0.7,0.7-1.1,0.9C16.8,8.9,16.2,9,15.5,9z M17.4,5.5
			c0-0.3,0-0.7,0-1.1s0-0.8-0.1-1.2c0-0.3-0.1-0.6-0.2-0.8C17,2.2,16.8,2,16.5,1.9c-0.3-0.1-0.7-0.1-1-0.1h-1.2v5.7h1.2
			c0.5,0,1-0.1,1.4-0.5C17.2,6.5,17.4,6,17.4,5.5L17.4,5.5z"/>
		<path id="Path_202" class="st0" d="M21,9V0.2h5.7v1.6h-3.9v2.1h3.1v1.5h-3.1v2.1h3.9V9H21z"/>
		<path id="Path_203" class="st0" d="M34.4,8c-1.6,1.5-4.1,1.5-5.7,0c-0.6-1-0.9-2.2-0.8-3.4c-0.1-1.2,0.2-2.4,0.8-3.5
			c1.6-1.5,4.1-1.5,5.7,0c0.6,1,0.9,2.3,0.8,3.5C35.3,5.8,35,7,34.4,8z M30.1,6.9c0.6,0.8,1.8,0.9,2.6,0.3C32.8,7.1,32.9,7,33,6.9
			c0.3-0.7,0.4-1.5,0.4-2.3S33.3,3,33,2.3c-0.6-0.8-1.7-1-2.5-0.4c-0.1,0.1-0.3,0.2-0.4,0.4c-0.3,0.7-0.4,1.5-0.4,2.3
			S29.8,6.2,30.1,6.9L30.1,6.9z"/>
	</g>
</g>
</svg>
